<?xml version="1.0" encoding="UTF-8"?>
<svg xmlns="http://www.w3.org/2000/svg" xmlns:xlink="http://www.w3.org/1999/xlink" width="345.89pt" height="345.89pt" viewBox="0 0 345.89 345.89" version="1.1">
<defs>
<clipPath id="clip1">
  <path d="M 139 52 L 293 52 L 293 345.890625 L 139 345.890625 Z M 139 52 "/>
</clipPath>
</defs>
<g id="surface1">
<path style=" stroke:none;fill-rule:nonzero;fill:rgb(23.899841%,35.699463%,59.999084%);fill-opacity:1;" d="M 326.804688 345.890625 C 337.34375 345.890625 345.894531 337.34375 345.894531 326.800781 L 345.894531 19.085938 C 345.894531 8.539063 337.34375 -0.00390625 326.804688 -0.00390625 L 19.089844 -0.00390625 C 8.542969 -0.00390625 0 8.539063 0 19.085938 L 0 326.800781 C 0 337.34375 8.542969 345.890625 19.089844 345.890625 L 326.804688 345.890625 "/>
<g clip-path="url(#clip1)" clip-rule="nonzero">
<path style=" stroke:none;fill-rule:nonzero;fill:rgb(100%,100%,100%);fill-opacity:1;" d="M 238.660156 345.890625 L 238.660156 211.941406 L 283.621094 211.941406 L 290.351563 159.738281 L 238.660156 159.738281 L 238.660156 126.410156 C 238.660156 111.296875 242.855469 100.996094 264.53125 100.996094 L 292.175781 100.984375 L 292.175781 54.296875 C 287.394531 53.660156 270.984375 52.238281 251.894531 52.238281 C 212.035156 52.238281 184.753906 76.566406 184.753906 121.242188 L 184.753906 159.738281 L 139.675781 159.738281 L 139.675781 211.941406 L 184.753906 211.941406 L 184.753906 345.890625 L 238.660156 345.890625 "/>
</g>
</g>
</svg>
